<svg width="156" height="20" viewBox="0 0 156 20" fill="none" xmlns="http://www.w3.org/2000/svg"><path fill-rule="evenodd" clip-rule="evenodd" d="M4.597 0 1.772 12.286h12.451l-.457 2H1.311L0 20h21.188l2.815-12.302h-12.36l.471-1.984h12.359L25.783 0H4.598Zm75.762 0L78.26 1.428 76.828 0H63.369l-4.596 20h7.261L69.32 5.714h4.315L70.35 20h7.26l3.285-14.286h4.315L81.925 20h7.26l4.597-20H80.359ZM50.037 0l-1.31 5.714h7.823l-4.696 1.984L49.024 20h7.193l4.596-20H50.037ZM28.366 0l-1.311 5.714h10.129l-4.705 1.984L29.627 20h7.261l3.285-14.286h5.975L47.458 0H28.367Zm84.954 0-2.098 1.428L109.789 0H96.33l-4.596 20h7.261l3.285-14.286h4.315L103.31 20h7.261l3.285-14.286h4.315L114.886 20h7.261l4.596-20H113.32Zm15.975 0-1.311 5.714h10.127l-4.724 1.984L130.555 20h10.734l1.311-5.71h-3.474l1.975-8.576h13.147L155.559 0h-26.264Z" fill="#fff"></path></svg>